HIERARCHY
ROOT Hips
{
	OFFSET -0.179506 -22.333345 2.821913
	CHANNELS 6 Xposition Yposition Zposition Zrotation Yrotation Xrotation 
	JOINT LeftUpLeg
	{
		OFFSET 6.951974 -9.140623 -0.681533
		CHANNELS 3 Zrotation Yrotation Xrotation
		JOINT LeftLeg
		{
			OFFSET 3.427654 -37.519855 -0.449580
			CHANNELS 3 Zrotation Yrotation Xrotation
			JOINT LeftFoot
			{
				OFFSET -1.359570 -39.796059 -4.369333
				CHANNELS 3 Zrotation Yrotation Xrotation
				JOINT LeftToe
				{
					OFFSET 2.635814 -5.579078 11.928840
					CHANNELS 3 Zrotation Yrotation Xrotation
					End Site
					{
						OFFSET 0.000000 0.000000 0.000000
					}
				}
			}
		}
	}
	JOINT RightUpLeg
	{
		OFFSET -6.767048 -9.052170 -0.431982
		CHANNELS 3 Zrotation Yrotation Xrotation
		JOINT RightLeg
		{
			OFFSET -3.829005 -38.256897 -0.885003
			CHANNELS 3 Zrotation Yrotation Xrotation
			JOINT RightFoot
			{
				OFFSET 1.577377 -39.841461 -4.231180
				CHANNELS 3 Zrotation Yrotation Xrotation
				JOINT RightToe
				{
					OFFSET -2.537174 -4.814398 12.334795
					CHANNELS 3 Zrotation Yrotation Xrotation
					End Site
					{
						OFFSET 0.000000 0.000000 0.000000
					}
				}
			}
		}
	}
	JOINT Spine
	{
		OFFSET -0.253288 10.896323 -2.669631
		CHANNELS 3 Zrotation Yrotation Xrotation
		JOINT Spine1
		{
			OFFSET 0.548704 13.518043 0.109247
			CHANNELS 3 Zrotation Yrotation Xrotation
			JOINT Spine2
			{
				OFFSET 0.145701 5.292222 2.542457
				CHANNELS 3 Zrotation Yrotation Xrotation
				JOINT Neck
				{
					OFFSET -0.277840 21.387037 -4.285703
					CHANNELS 3 Zrotation Yrotation Xrotation
					JOINT Head
					{
						OFFSET 0.515184 6.496960 5.134897
						CHANNELS 3 Zrotation Yrotation Xrotation
						End Site
						{
							OFFSET 0.000000 0.000000 0.000000
						}
					}
				}
				JOINT LeftShoulder
				{
					OFFSET 7.884473 12.174932 -3.408961
					CHANNELS 3 Zrotation Yrotation Xrotation
					JOINT LeftArm
					{
						OFFSET 9.097692 3.046888 -0.886815
						CHANNELS 3 Zrotation Yrotation Xrotation
						JOINT LeftForeArm
						{
							OFFSET 25.961220 -1.277207 -2.745643
							CHANNELS 3 Zrotation Yrotation Xrotation
							JOINT LeftHand
							{
								OFFSET 24.923361 0.898606 -0.117091
								CHANNELS 3 Zrotation Yrotation Xrotation
								End Site
								{
									OFFSET 0.000000 0.000000 0.000000
								}
							}
						}
					}
				}
				JOINT RightShoulder
				{
					OFFSET -8.175920 11.883285 -3.861528
					CHANNELS 3 Zrotation Yrotation Xrotation
					JOINT RightArm
					{
						OFFSET -9.601238 3.255117 -0.914307
						CHANNELS 3 Zrotation Yrotation Xrotation
						JOINT RightForeArm
						{
							OFFSET -25.374195 -1.332924 -2.140099
							CHANNELS 3 Zrotation Yrotation Xrotation
							JOINT RightHand
							{
								OFFSET -25.529810 0.777228 -0.555919
								CHANNELS 3 Zrotation Yrotation Xrotation
								End Site
								{
									OFFSET 0.000000 0.000000 0.000000
								}
							}
						}
					}
				}
			}
		}
	}
}
MOTION
Frames: 15
Frame Time: 0.033333
-24.904423 95.122597 82.302582 -126.862899 -0.710901 81.850302 37.507581 9.556066 -8.658776 1.158019 8.412820 46.601366 -5.190854 6.908889 -7.750464 nan nan nan -22.529372 -19.927775 -28.584193 0.078768 -21.311372 51.963920 1.663980 -5.094511 -16.774596 nan nan nan -2.952177 2.071632 17.719865 4.825567 0.014220 2.916334 2.701473 -0.275035 -1.724123 6.090670 -15.810794 8.468522 5.263200 -20.973874 16.080979 -8.919058 -11.702388 -3.431289 -49.352863 -37.090405 14.557084 171.974827 -72.227005 -135.680416 0.742897 -15.307724 -20.085909 9.006947 13.319175 -5.587807 17.986255 21.423636 -16.442666 -61.750952 44.310982 -46.032021 0.716122 4.431696 3.180744 
-25.164583 93.615257 82.374702 -126.771587 -0.405393 81.713757 37.843067 9.849033 -8.134479 0.735493 8.382147 46.175919 -5.539816 6.579976 -6.612296 nan nan nan -23.055107 -20.147116 -28.252188 0.390387 -21.386003 50.571731 2.093747 -4.846565 -14.988054 nan nan nan -2.946485 1.978375 17.652192 5.232165 -0.286471 3.067090 3.004677 -0.303352 -1.701070 5.983839 -15.643202 8.562168 5.119858 -20.844415 16.076899 -8.441552 -11.735152 -3.669454 -48.568335 -37.625834 13.854688 170.228039 -71.856706 -134.242044 1.459741 -14.874319 -20.206533 9.227489 13.169210 -5.615440 18.084870 21.660590 -16.137925 -63.138108 45.031101 -46.783327 0.425369 4.330027 3.942501 
-25.448235 92.012741 82.515907 -126.650902 -0.101339 81.724930 37.854432 10.080985 -7.754308 0.551759 8.579244 45.725208 -6.035535 6.784653 -6.534134 nan nan nan -23.607748 -20.274699 -27.903957 0.621072 -21.669421 48.905165 2.827775 -4.474312 -12.972272 nan nan nan -2.844894 1.870012 17.420879 5.635803 -0.586309 3.232961 3.284662 -0.379290 -1.677254 5.768220 -15.510999 9.055163 5.151419 -20.621711 15.671041 -8.049429 -11.948176 -3.834028 -47.792495 -38.124852 13.139952 168.159195 -71.418454 -132.217957 1.830711 -14.621373 -19.562411 9.438037 13.078139 -5.551088 18.167573 21.810106 -15.881309 -64.492757 45.839895 -47.653515 0.120658 4.254734 4.032603 
-25.743195 90.298035 82.727943 -126.451412 0.123809 81.740006 37.490817 10.221861 -7.417031 0.412885 8.911616 45.136256 -6.381847 7.162945 -7.577338 nan nan nan -24.235079 -20.452141 -27.345995 0.901135 -21.989338 46.773457 3.840825 -4.190729 -10.675975 nan nan nan -2.714163 1.822227 17.296509 6.005334 -0.944513 3.460252 3.570406 -0.562100 -1.768528 5.465482 -15.585126 9.550150 5.215998 -20.216205 15.256702 -7.563753 -12.164580 -4.017809 -47.205474 -38.715257 12.445313 166.378793 -70.933326 -130.231135 2.186900 -14.170565 -18.581074 9.545917 13.028107 -5.542969 18.368172 21.957779 -15.509520 -65.877144 46.526489 -48.637705 -0.094804 4.352314 4.036938 
-26.080807 88.483109 83.003654 -126.133830 0.268972 81.744395 36.790981 10.411192 -7.185948 -0.293874 8.861529 44.598737 -6.872717 6.251576 -9.989694 nan nan nan -24.858830 -20.791206 -26.508570 1.130607 -22.160499 44.098057 4.973515 -3.895646 -8.140900 nan nan nan -2.455408 1.815951 17.260749 6.306073 -1.442515 3.562224 3.818041 -0.821220 -1.754848 5.094037 -15.586458 9.970988 5.280637 -19.954580 14.816240 -7.036750 -12.327459 -4.303618 -46.914485 -39.262789 11.848988 164.625079 -70.462301 -128.397466 2.753219 -13.982374 -18.371005 9.559828 12.866962 -5.635845 18.693515 22.267167 -15.108876 -67.137918 47.225343 -49.349464 -0.311232 4.341006 4.190984 
-26.476240 86.581718 83.334724 -125.722257 0.333163 81.838351 35.705601 10.565492 -7.185990 -0.666939 9.236496 44.091931 -7.035706 5.787624 -12.328108 nan nan nan -25.499876 -21.134605 -25.422018 1.465857 -22.195548 40.722533 6.010584 -3.770235 -5.375856 nan nan nan -2.036650 1.781484 17.058610 6.518275 -2.017641 3.534301 4.023374 -1.097636 -1.517311 4.415158 -15.719758 10.479917 5.495666 -19.507563 14.387761 -6.624887 -12.633492 -4.570632 -46.774852 -39.615987 11.349406 162.538977 -69.993229 -126.314935 3.642458 -14.014111 -18.588342 9.439660 12.779806 -5.628947 19.031313 22.396116 -14.698654 -68.481221 47.823792 -50.051876 -0.238401 4.101785 4.308971 
-26.862076 84.613960 83.706238 -125.272791 0.355454 81.980439 34.337543 10.942100 -7.516507 -0.419875 10.062648 43.762487 -6.875978 5.744818 -14.214267 nan nan nan -26.031708 -21.393671 -24.168612 1.723453 -22.171608 36.806833 6.874239 -3.870461 -2.166791 nan nan nan -1.615705 1.793975 16.840879 6.703001 -2.606130 3.488684 4.235822 -1.220288 -1.325639 3.667448 -16.168242 11.165543 5.838815 -18.968221 13.884739 -6.168586 -13.289884 -4.518183 -46.508336 -40.065008 10.745356 160.019589 -69.468241 -123.943592 4.542111 -14.192549 -18.748864 9.232856 12.673069 -5.669940 19.407313 22.253849 -14.384627 -69.843119 48.375569 -50.884833 0.123481 4.037565 4.382614 
-27.225348 82.610550 84.103409 -124.911113 0.351276 82.128170 32.843213 11.630963 -8.045397 0.060129 11.087863 43.589945 -6.227908 6.003163 -15.740062 nan nan nan -26.318740 -21.511652 -22.875655 1.820346 -21.964566 32.539374 7.399923 -4.377395 1.268831 nan nan nan -1.205014 1.858742 16.750662 6.855243 -3.107423 3.264334 4.508139 -1.343816 -1.129968 2.688433 -16.901647 12.104567 6.255503 -18.205272 13.238077 -5.686405 -13.986284 -4.280947 -46.131148 -40.614202 9.935270 158.042971 -69.007385 -122.093691 5.708215 -14.326422 -18.991803 8.868228 12.620403 -5.526449 19.825547 22.117137 -14.203087 -71.168623 48.779408 -51.732804 0.252751 4.027432 4.440445 
-27.582417 80.600296 84.524193 -124.614411 0.343554 82.290781 31.280688 12.361025 -8.625901 0.406785 12.036908 43.386564 -5.047402 6.414736 -17.213233 nan nan nan -26.336341 -21.472574 -21.666278 1.712385 -21.549857 28.211993 7.656644 -5.467259 4.638847 nan nan nan -0.605106 1.828830 16.942191 6.884323 -3.391523 2.549413 4.831003 -1.818276 -0.962816 0.976778 -17.555138 13.241539 6.796067 -16.832123 12.720199 -5.341769 -14.287021 -4.177864 -45.885736 -40.969690 9.010846 157.496215 -68.713602 -121.493302 6.711721 -14.173280 -18.912761 8.111218 12.785219 -5.022002 20.509113 22.061960 -14.031465 -72.382147 49.087519 -52.665435 0.050740 3.953050 4.289256 
-27.902023 78.608086 84.947075 -124.403898 0.348148 82.414718 29.758158 12.749822 -9.103515 0.613688 13.011459 43.045230 -4.011288 6.800808 -18.774516 nan nan nan -26.255293 -21.069547 -20.511391 1.618172 -21.112172 24.174672 7.931069 -6.731782 7.214027 nan nan nan -0.034951 1.860508 17.244313 6.906781 -3.577160 1.940060 5.138767 -2.178666 -1.000185 -0.591522 -18.118586 14.361143 7.382275 -15.405895 11.976215 -4.874695 -14.606371 -4.089912 -45.777680 -41.388826 8.357878 156.715458 -68.346274 -120.702988 6.980643 -13.980559 -18.497064 7.348069 12.831826 -4.612870 21.175102 21.932049 -13.763753 -73.344204 49.290316 -53.566463 -0.105182 3.766465 4.217125 
-28.177660 76.627983 85.307457 -124.394419 0.411714 82.511658 28.453282 12.986724 -9.580576 0.638072 13.905223 42.866121 -3.325037 7.088478 -20.332949 nan nan nan -26.086723 -20.448479 -19.732659 1.825604 -20.394052 21.358125 8.051435 -7.857837 7.963521 nan nan nan 0.349298 2.081895 17.378021 7.097527 -3.629420 1.757125 5.330418 -2.093783 -0.955435 -1.043811 -18.733745 14.915197 7.515819 -14.927923 11.245073 -4.141144 -15.151318 -3.960810 -45.781461 -42.407890 8.084241 154.609480 -67.996369 -118.453076 6.991575 -13.992567 -17.831806 6.931950 12.486743 -4.628706 21.313148 21.721649 -13.532266 -73.938217 49.408192 -54.108345 -0.109472 3.729092 3.904273 
-28.449303 74.681198 85.595345 -124.599099 0.440603 82.518978 27.276247 13.376080 -10.061579 0.567199 14.431121 43.060493 -2.735821 7.186475 -21.526756 nan nan nan -25.817921 -20.236157 -19.727186 2.062279 -19.319379 21.106378 7.870814 -7.481787 6.136023 nan nan nan 0.698642 2.304139 17.586104 7.243701 -3.548487 1.558912 5.408005 -1.902222 -0.761812 -1.068190 -19.010155 15.063769 7.432314 -15.065313 10.690523 -3.268747 -15.540594 -4.256984 -45.941292 -43.383233 7.831364 152.579461 -67.665640 -116.099934 6.607736 -14.016748 -17.294770 6.498540 12.238573 -4.611246 21.395151 21.532820 -13.696199 -74.339652 49.560394 -54.157909 0.136113 3.850215 3.530255 
-28.692505 72.797432 85.826530 -124.891962 0.482284 82.486359 26.284451 13.777269 -10.670834 0.386871 14.654371 43.682182 -2.162953 7.169871 -22.397821 nan nan nan -25.354704 -20.396466 -20.377859 1.689101 -18.793275 22.868133 7.393569 -6.686473 3.708545 nan nan nan 1.182444 2.317694 18.039468 7.216854 -3.319557 1.030354 5.383481 -1.815134 -0.514999 -1.269887 -18.941769 14.977112 7.291937 -15.190006 10.508088 -2.380772 -15.474420 -4.945421 -46.320725 -44.050827 7.630028 151.558840 -67.486232 -114.679162 6.431480 -13.729478 -17.349613 5.870613 12.214694 -4.500343 21.913661 21.447318 -13.775790 -74.837366 49.591440 -54.109073 0.393370 4.121177 3.034749 
-28.868731 70.963303 86.018967 -125.219971 0.561733 82.449879 25.502253 13.987159 -11.390925 -0.040375 14.710666 44.509197 -1.584743 7.104723 -23.174216 nan nan nan -24.795637 -20.417990 -21.489300 1.337080 -18.759374 26.374973 7.053019 -6.619912 0.697246 nan nan nan 1.618147 2.226948 18.459682 7.269795 -3.003938 0.729056 5.352808 -1.782960 -0.358066 -1.472581 -18.631531 14.556965 6.964819 -15.529576 10.428656 -1.596435 -15.234127 -5.822967 -46.620013 -44.476209 7.519144 150.776798 -67.353521 -113.745883 6.600052 -13.463410 -17.403403 5.243027 12.378260 -4.544177 22.344971 21.453403 -13.722786 -75.223681 49.524290 -54.186690 0.596249 4.221589 2.952171 
-29.002863 69.176041 86.174347 -125.503776 0.647608 82.311390 24.874541 13.999758 -12.090314 -0.530623 14.654548 45.411435 -1.277079 6.939338 -23.625520 nan nan nan -24.319159 -20.072323 -22.614213 0.816153 -19.266871 30.894081 6.901785 -6.632445 -2.474026 nan nan nan 1.714721 2.258061 18.809352 7.495989 -2.713463 0.504312 5.297424 -1.186402 0.069783 -0.720684 -18.365037 13.632078 6.404640 -16.596701 10.581903 -0.721372 -15.700411 -6.382276 -46.552530 -45.348183 7.688318 148.233575 -67.291297 -111.278537 6.891708 -13.726623 -17.060733 5.184920 12.222227 -5.119061 22.083940 21.036371 -13.667846 -75.102948 49.552453 -54.050108 0.672091 4.474943 2.448099 
